<svg version="1.1" xmlns="http://www.w3.org/2000/svg" viewBox="0 0 107.32267225206306 91.09573770913084" width="107.32267225206306" height="91.09573770913084" filter="invert(93%) hue-rotate(180deg)">
<!--
 Excalidraw Frame Export
 Frame: export_venn
 Theme: dark
 Source: graphics.excalidraw
 Generated by Excalidraw VSCode Extension
--><!-- svg-source:excalidraw --><metadata></metadata><defs><style class="style-fonts">
      </style></defs><rect x="0" y="0" width="107.32267225206306" height="91.09573770913084" fill="#fdf8f6"></rect><g stroke-linecap="round" transform="translate(10.00000000000091 13.037781732672101) rotate(0 26.92442368481943 24.20788787232391)"><path d="M15.89 1.9 C20.9 -0.31, 29.75 -0.57, 35.44 1.05 C41.13 2.67, 46.87 7.39, 50.05 11.62 C53.22 15.85, 55.19 21.44, 54.51 26.43 C53.82 31.43, 50.11 37.78, 45.94 41.58 C41.78 45.37, 35.28 48.8, 29.5 49.2 C23.73 49.61, 15.97 47.22, 11.3 44.02 C6.63 40.81, 2.84 35.23, 1.47 29.98 C0.1 24.73, -0.3 17.31, 3.07 12.53 C6.44 7.75, 17.68 3.28, 21.7 1.31 C25.72 -0.66, 27.04 0.52, 27.19 0.71 M33.41 -0.16 C39.24 0.68, 45.81 4.56, 49.14 8.83 C52.46 13.11, 53.91 20.44, 53.37 25.48 C52.83 30.52, 49.77 35.33, 45.88 39.08 C41.99 42.83, 35.48 46.82, 30.02 47.96 C24.56 49.11, 17.82 48.74, 13.11 45.95 C8.41 43.17, 3.49 36.28, 1.79 31.27 C0.08 26.25, 0.88 20.61, 2.9 15.85 C4.91 11.1, 8.74 5.13, 13.89 2.72 C19.04 0.32, 30.94 1.84, 33.79 1.42 C36.65 1.01, 31.13 -0.16, 31 0.24" stroke="#1e1e1e" stroke-width="2" fill="none"></path></g><g stroke-linecap="round" transform="translate(34.566091133844566 32.67996196448303) rotate(0 26.92442368481943 24.20788787232391)"><path d="M25.77 0.12 C31.37 -0.41, 38.63 2.39, 43.31 5.33 C47.98 8.26, 52.45 12.85, 53.85 17.72 C55.24 22.58, 54.16 29.62, 51.67 34.52 C49.19 39.41, 44.21 44.88, 38.94 47.1 C33.66 49.33, 25.61 49.38, 20.03 47.86 C14.44 46.34, 8.69 42.46, 5.41 37.97 C2.14 33.48, -0.14 25.98, 0.38 20.92 C0.9 15.87, 3.87 11.1, 8.51 7.66 C13.16 4.21, 24.48 1.47, 28.25 0.24 C32.02 -0.99, 31.19 0.05, 31.16 0.27 M17.23 1.69 C21.85 -0.37, 28.88 0.25, 34.03 1.56 C39.19 2.88, 45.03 5.4, 48.17 9.59 C51.3 13.77, 53.25 21.14, 52.86 26.69 C52.47 32.23, 49.78 39.34, 45.82 42.86 C41.85 46.38, 34.7 47.56, 29.05 47.79 C23.41 48.03, 16.72 47.28, 11.97 44.27 C7.21 41.27, 1.81 34.72, 0.52 29.74 C-0.77 24.76, 1.85 19.13, 4.24 14.39 C6.63 9.65, 12.66 3.13, 14.88 1.3 C17.1 -0.52, 17 2.95, 17.56 3.45" stroke="#1e1e1e" stroke-width="2" fill="none"></path></g><g stroke-linecap="round" transform="translate(43.473824882424196 10) rotate(0 26.92442368481943 24.207887872324136)"><path d="M26.14 0.81 C31.59 0.14, 39.34 1.39, 43.92 4.34 C48.51 7.29, 52.31 13.26, 53.63 18.53 C54.96 23.81, 54.49 31.28, 51.87 35.99 C49.24 40.71, 43.21 44.91, 37.87 46.83 C32.53 48.74, 25.37 49.2, 19.82 47.49 C14.28 45.78, 7.82 40.78, 4.61 36.54 C1.41 32.31, -0.15 27.04, 0.59 22.07 C1.33 17.11, 4.34 10.5, 9.08 6.76 C13.81 3.01, 25.27 0.75, 28.98 -0.39 C32.69 -1.53, 31.61 -0.69, 31.33 -0.09 M20.65 1.15 C25.55 -0.35, 33.15 -0.73, 38.21 1.54 C43.26 3.81, 48.53 9.58, 50.98 14.77 C53.43 19.95, 54.43 27.76, 52.9 32.64 C51.37 37.52, 46.54 41.37, 41.79 44.06 C37.03 46.75, 30.22 49.39, 24.39 48.77 C18.56 48.16, 10.64 44.13, 6.81 40.36 C2.99 36.6, 1.88 31.44, 1.47 26.17 C1.05 20.9, 0.86 12.83, 4.34 8.72 C7.82 4.62, 19.35 2.82, 22.35 1.54 C25.34 0.26, 22.56 0.76, 22.28 1.06" stroke="#1e1e1e" stroke-width="2" fill="none"></path></g></svg>